<svg id="Layer_2" xmlns="http://www.w3.org/2000/svg" viewBox="0 0 1264.5 362.1"><style>.st0{fill:#808080;}</style><title>logo_wildaid</title><path class="st0" d="M427 302.3h-25.5v59.1H416v-47.5h8.4c7 0 11 5.5 11 12.2 0 8.5-8.7 12.1-15 12.1 2.5 3.6 7.6 4.4 11.6 4.4 9.9 0 18-8 18-17.9v-.4c.1-8.1-4.6-22-23-22zM480.9 302.3l-20.4 59.1h14l3.5-10.6h23.8l3.5 10.6h15.2l-19.4-59.1h-20.2zm1.3 36.9l8.1-24.3 7.6 24.3h-15.7zM934.2 302.3l-20.4 59.1h14l3.5-10.6h23.8l3.5 10.6h15.2l-19.4-59.1h-20.2zm1.2 36.9l8.1-24.3 7.6 24.3h-15.7zM584.3 341.4l-26.2-39.1h-17.6v59.1h13.8v-38.9l26.3 38.9h17.5v-59.1h-13.8zM621.4 314.3h17.7v47.1h14.5v-47.1h17.6v-12h-49.8zM731.5 325.9h-24.9v-23.6h-14.5v59.1h14.5v-23.9h24.9v23.9H746v-59.1h-14.5zM789.5 337.5h22.6v-11.6h-22.6v-12h28.3v-11.6H775v59.1h42.7l.8-11.6h-29zM891.4 351.3c-4.5-6.1-8.4-11-14.5-13.4 7.5-1.3 15.4-6.9 15.4-16.5 0-8.9-7.6-19-24.7-19h-25.1v59.1H857V314h8.2c8.7 0 12.1 5.4 12.1 10.4 0 8-9.9 10.6-15.5 11.2 6.1 4.1 9.5 12.6 14.3 19.7 2.9 4.3 6.1 6.8 12.8 6.8 2.9 0 8.8-.6 11.8-3.7-2.8-.5-5.6-2-9.3-7.1zM264.1 70.4c24 5.5 70 14.5 104.4 17.3 27 2.2 42.7-.2 42.6 0-4.4 7.1-7.8 16.4-15.6 29 0 0-9.2 17.7-21.1 27.2-2.8 2.2-5.8 4-8.9 5.5-2.3 1.1 1.4 1.6 1.4 1.6s42.1 4.3 66.3-25.5c9.3-11.5 12.7-18 18.4-25.8 29.2-39.7 48.7-53.2 86.1-57.5 3.2-.4 14-1.7 16.5-1.8 19.5-1.1 4.8-5.2-8.3-8-5.3-1.2-48.5-9.8-97.7 7.8-65.8 23.5-153.1 7.3-187.2 1.3C169 25.4 153 69.7 152 90c-1 20.9 21.6 25.2 22.7 9.7 2.9-42.7 60.2-36.1 89.4-29.3z"/><path class="st0" d="M729.9 215.4c1.4-.2 1.5-1.3.1-1.5-12.5-1.9-50.3-31.9-77.4-60.6-51.3-54.4-118.2 4.4-130.6 12.4-11.8 7.6-43 30-70.4 38.7-18.7 5.9-38.2 9-57.8 9.2-11.7-.5-23.4-1.7-35-3.8-69.4-12.8-59.9-22.8-67.8-20.4-11.9 3.6-49.2 35-57.1 40.8-12 8.9-17.6 11.9-27.8 13.1-10.2 1.2-15.2-.7-17.6 1.2-3.5 2.9-4 12.1-2.4 16.9 2.5 7.4 10.6 19 27 15.1 19.7-4.7 50.7-36.2 77-40.1 9.7-1.4 34.4-4.3 79.4-6.3 0 3.9-4.1 9.8-8.8 16-8.1 10.6-24.6 16.1-24.6 16.1-2.9 1.5-5.3 4-6.6 7-5.6 13.8-21 49.9-22.5 53.8-1.6 4.2-5 16 7.8 33 1.5 2.4 3.8 4.1 6.5 4.9 4.8 1.6 28.4 1.4 32.1-1s2.6-13 .7-16.2c-4-6.5-12.4-8.3-12.4-8.3-13.2-44.2 49-62.6 49-62.6 125.9-40.3 130.6-87.6 134.6-94.2l.1-.1c6.6-1.9 43.7-13.2 74.9 1 24.8 11.5 80.3 42.9 129.6 35.9zM1111.9 211.1c-1.3-5-2.4-7.6-7-11.5-8.6-7.2-39.7-27.1-48.3-27.4-3.3-.1-69.2-8.5-94.9-9.3 4-2.9 10-15.9 14.5-33.1 2.8-10.4 6-13.7 12.9-13l1.3.2c4.1 3.3 7 9.2 16.2 11.2 6.2 1.4 17.4-1.5 27.2-.8 3.1.3 6.1.9 9.1 1.9h.1c8.5 2.2 16.2 8.7 20.8 8.4 7.8 0 15.2-9.8 15.7-10.8 0 0-12.3-.7-15.8-3.9-6.4-6-.5-8.1-12.2-13.2s-35.7.9-47.5-6c-4.8-4.2-9.5-9.1-16.1-10.6-10-2.1-38.4-.8-38.4-.8-1.5.1-1.5.6-1.2 2.9 2.6 23.9-14.7 38.4-24.2 45.2-13.4 9.6-20.7 14.1-20.7 14.1-1.9.9-2.6 1.9-1.9 3.3.4.9 2 1 11.1 3.1 14.8 3.4 60.1 19.5 64.9 22.8 8.5 6 9.6 22.2 9.6 22.2s-.4 1.7 2 1.5c7.5-.6 57.4-2.9 66.8-1.2 11 2 26.8 14.8 25.6 18.9 0 0-8.4 29.2 23 27.5 6-.3 8.5-8.9 8.8-13.1-.1-.4.8-19.9-1.4-28.5zM1067.3 82.1v-.2.2zM958.7 239.9c5-2.9 5.9-17.4 5.6-24.7-.2-4-1.6-12.7-4.4-16-5.2-6.1-79.1-16.8-150.5-11.8-26.2 1.8-31.8-15.2-31.8-15.2-6-11 22.8-48.9 22.8-48.9-.9-1.9-2.7-1.9-5.2-.8-22.7 10-46.1 39.4-52.3 61.4-6.9 24.4 27.4 30.2 38 29.4 46.3-3.7 145.6-3 148.3-2.7 2.2.2 4.3 6.9 2.1 8.6-2.8 2.3-8.5 3.9-17.2 5.8 0 0-22.1 6.6-7.6 31.5 2.5 4.3 7.5 3.5 12.1 2.3 0-.1 23-9.1 40.1-18.9zM996 51.7c8.4-8.3 12.9-11.1 9.6-21.8-2.2-7.3.2-10.2 3.9-10.5 3.8-.3 8.3 6.9 19.3 11.9 11.2 5.2 12.3 6 25.4 13.1 14.6 7.8 16.5 11.4 16.4 20.7-.1 11.6 19.1 19.8 19.6 27.9.4 5.7-8.2 4.3-8.2 4.3-1.2 11.4 6.9 9.1 13.3 13.8 6.3-5.2 12-10.2 12.2-16.2.1-7.4-17.7-31.1-18-38.5-.4-11.3-8.2-18-11.8-21.1-8.4-7.3-25.1-16-25.1-16-1.8-9.2-4.7-14.4-9.7-15.7-7.3-1.9-16.3 6.2-16.3 6.2C1015.4 0 1007-1 999.9.6c-6.6 1.5-13.9 6.9-13.5 21.5.3 12.8 9.6 29.6 9.6 29.6zM735.4 65.1c6.1 2.8 12.4 5.1 18.8 7.1 18.5 5.7 37.8 7.6 47.3 2.5 43.3-23.1 56.9-35.7 80.6-35.2 1.3.1 4.7 0 6.1.2 14.9 1.7 25.4 4.8 43.7 22 0 0 2.1 2 2.7 1.8.9-.3-2.3-27.1 17.7-32.3 18.2-4.7 24.2-7.9 15.1-9.7-5-1-14.1-1.2-34.6 2.5-12.2 2.2-22.5 5-46.2.7-14.1-2.6-23.1-5-32.6-4.3-15.8.7-30.2 7.5-48 15.3-4.4 1.8-9.2 3.8-14.5 5.8-48.2 18.7-61.9 14.7-63.7 18.6-.6 1.2 2.1 2.9 7.6 5z"/></svg>